<?xml version="1.0" encoding="UTF-8"?>
<svg width="27px" height="27px" viewBox="0 0 27 27" version="1.1" xmlns="http://www.w3.org/2000/svg" xmlns:xlink="http://www.w3.org/1999/xlink">
    <!-- Generator: Sketch 49 (51002) - http://www.bohemiancoding.com/sketch -->
    <title>Graphics / Navbar &amp; Toolbar Icons / white / shop</title>
    <desc>Created with Sketch.</desc>
    <defs></defs>
    <g id="Symbols" stroke="none" stroke-width="1" fill="none" fill-rule="evenodd">
        <g id="Graphics-/-Navbar-&amp;-Toolbar-Icons-/-white-/-shop" fill="#FFFFFF" fill-rule="nonzero">
            <g id="shop" transform="translate(1.000000, 3.000000)">
                <path d="M17.5484138,17.769931 L11.44,17.769931 C11.5006897,17.9307586 11.5568276,18.0733793 11.6053793,18.2053793 C12.0605517,19.4646897 11.5553103,20.7968276 10.3748966,21.5068966 C9.31282759,22.1411034 7.85324138,21.8953103 6.98689655,20.9364138 C6.12016308,19.9660251 6.06290621,18.5174262 6.85034483,17.4816552 C6.9950013,17.3115996 7.047152,17.0814563 6.98993103,16.8656552 C6.06036782,12.148046 5.13535632,7.42942529 4.21489655,2.7097931 C4.17393103,2.50041379 4.12841379,2.29255172 4.07986207,2.05282759 L0.968,2.05282759 C0.27462069,2.05282759 0.151724138,1.93296552 0.151724138,1.23958621 C0.151724138,0.999862069 0.151724138,0.75862069 0.151724138,0.518896552 C0.142321469,0.381828316 0.192361254,0.247342986 0.289074289,0.149758663 C0.385787324,0.0521743385 0.519818467,0.000930444737 0.656965517,0.00910344828 C2.11048276,2.72351586e-16 3.56551724,2.72351586e-16 5.01903448,0.0136551724 C5.47102531,0.0237734797 5.85256955,0.352537431 5.92937931,0.798068966 C6.08110345,1.42468966 6.19034483,2.05737931 6.32841379,2.73255172 L6.76689655,2.73255172 C12.3169655,2.73255172 17.8670345,2.74772414 23.4171034,2.71737931 C24.3411034,2.71737931 24.8918621,3.32427586 24.677931,4.23462069 C24.024,7.04910345 23.4398621,9.87875862 22.8238621,12.7023448 C22.6721379,13.3866207 22.3322759,13.6566897 21.6222069,13.6566897 C17.3971954,13.6556782 13.1737011,13.6551724 8.95172414,13.6551724 L8.46165517,13.6551724 C8.58910345,14.3197241 8.69682759,14.9402759 8.83793103,15.5532414 C8.85462069,15.6245517 9.05337931,15.6928276 9.16717241,15.6943448 C10.3430345,15.7049655 11.5188966,15.6943448 12.6947586,15.6943448 L20.6982069,15.6943448 C21.5782069,15.6943448 21.9453793,16.1085517 21.8877241,16.9976552 C21.9027146,17.1286294 21.9609035,17.2508796 22.0531034,17.3451034 C23.1986207,18.781931 22.7358621,20.8453793 21.0926897,21.604 C20.0845188,22.0548785 18.9045346,21.860205 18.0946207,21.1093793 C17.3003711,20.3785681 17.0165257,19.2455716 17.3724138,18.2266207 C17.4209655,18.0991724 17.4771034,17.9611034 17.5484138,17.769931 Z M22.4293793,4.80510345 L6.72289655,4.80510345 C7.17048276,7.09006897 7.612,9.3462069 8.05351724,11.5962759 L20.950069,11.5962759 L22.4293793,4.80510345 Z M9.03972414,20.1292414 C9.44759888,20.1267617 9.81373224,19.8785896 9.96710836,19.5006428 C10.1204845,19.1226961 10.0308352,18.689561 9.7400345,18.4035489 C9.4492338,18.1175368 9.01466995,18.0350911 8.63932177,18.194721 C8.26397359,18.3543509 8.02191447,18.7245541 8.0262069,19.1324138 C8.02318417,19.4003488 8.12965004,19.6579101 8.32097332,19.84551 C8.51229659,20.0331099 8.77190022,20.1344941 9.03972414,20.1262069 L9.03972414,20.1292414 Z M19.9714483,20.1292414 C20.3792756,20.1236472 20.7434917,19.8727062 20.8939882,19.4936215 C21.0444846,19.1145368 20.951564,18.6821128 20.6586253,18.3983148 C20.3656866,18.1145168 19.9305351,18.0353464 19.55641,18.1977806 C19.182285,18.3602147 18.9430121,18.7322003 18.9503448,19.14 C18.9497489,19.4078524 19.058295,19.6643893 19.2509593,19.8504692 C19.4436236,20.0365491 19.7037785,20.1361128 19.9714483,20.1262069 L19.9714483,20.1292414 Z" id="Shape"></path>
            </g>
        </g>
    </g>
</svg>